# xmcd
#
# Track frame offsets:
#	150
#	24620
#	48182
#	61995
#	95047
#	107890
#	120432
#	134197
#	151580
#	167622
#	179962
#	205962
#	217505
#	228085
#
# Disc length: 3214
#
# Revision: 3
# Processed by: cddbd v1.5.1PL0 Copyright (c) Steve Scherf et al.
# Submitted via: CDex 1.40Beta9
# Normalized: r1:DSETVAR1,TSWAP
#
DISCID=bd0c8c0e
DTITLE=Various Artist - Super Blues All Time Classic Blues Hits - Volume 1
DYEAR=1990
DGENRE=Blues
TTITLE0=B. B. King - The Thrill Is Gone
TTITLE1=Z. Z. Hill - Down Home Blues
TTITLE2=Ike and Tina Turner - It's Gonna Work Out Fine
TTITLE3=Albert King - I'll Play The Blues For You - Parts 1&2
TTITLE4=Howlin' Wolf - Killing Floor
TTITLE5=Jimmy Reed - Honest I Do
TTITLE6=Koko Taylor - Wang Dang Doodle
TTITLE7=Little Johnnie Taylor - Part Time Love
TTITLE8=Johnnie Taylor - Part Time Love
TTITLE9=Bobby Blue Bland - I Pity The Fool
TTITLE10=Little Milton - Blue Monday
TTITLE11=Lightin' Hopkins - Got To Move Your Baby
TTITLE12=Irma Thomas - Wish Someone Would Care
TTITLE13=Johnny Watson and Larry Williams - Mercy, Mercy, Mercy
EXTD=YEAR: 1990 ID3G: 0
EXTT0=
EXTT1=
EXTT2=
EXTT3=
EXTT4=
EXTT5=
EXTT6=
EXTT7=
EXTT8=
EXTT9=
EXTT10=
EXTT11=
EXTT12=
EXTT13=
PLAYORDER=
